<svg class="icon" style="width: 1em;height: 1em;vertical-align: middle;fill: currentColor;overflow: hidden;" viewBox="0 0 1024 1024" version="1.1" xmlns="http://www.w3.org/2000/svg"><path d="M512 42.666667c258.133333 0 469.333333 211.2 469.333333 469.333333s-211.2 469.333333-469.333333 469.333333S42.666667 770.133333 42.666667 512 253.866667 42.666667 512 42.666667z m0 853.333333c211.2 0 384-172.8 384-384S723.2 128 512 128 128 300.8 128 512s172.8 384 384 384z" fill="#2F3CF4" /><path d="M512 448c-36.266667 0-64 27.733333-64 64s27.733333 64 64 64 64-27.733333 64-64-27.733333-64-64-64M725.333333 448c-36.266667 0-64 27.733333-64 64s27.733333 64 64 64 64-27.733333 64-64-27.733333-64-64-64M298.666667 448c-36.266667 0-64 27.733333-64 64s27.733333 64 64 64 64-27.733333 64-64-27.733333-64-64-64" fill="#2F3CF4" /></svg>