<?xml version="1.0" standalone="no"?><!DOCTYPE svg PUBLIC "-//W3C//DTD SVG 1.1//EN" "http://www.w3.org/Graphics/SVG/1.1/DTD/svg11.dtd"><svg t="1668351223724" class="icon" viewBox="0 0 1024 1024" version="1.1" xmlns="http://www.w3.org/2000/svg" p-id="1587" xmlns:xlink="http://www.w3.org/1999/xlink" width="40" height="40"><path d="M367.365219 387.298065m-367.365219 0a367.365219 367.365219 0 1 0 734.730438 0 367.365219 367.365219 0 1 0-734.730438 0Z" fill="#4FBF9F" p-id="1588"></path><path d="M859.432373 415.9461l146.609384 217.386628H889.766098v146.609384c0 45.498415-37.074312 82.572727-82.572727 82.572727H699.343988v124.701935H390.958358v-97.739589c0-89.313313-35.388622-175.257419-99.42528-239.294077-60.665278-60.665278-96.0539-144.923694-96.053899-235.922697 1.68569-173.57173 139.868798-318.495424 313.440527-326.921701 192.107799-11.795483 350.512667 139.868798 350.512667 328.60739z" fill="#FDBF5E" p-id="1589"></path><path d="M362.310322 754.663284c18.53607 42.129208 28.648035 87.627624 28.648036 134.813901v97.739589H699.343988v-124.701935h107.849383c45.498415 0 82.572727-37.074312 82.572727-82.572727v-25.276656l-527.455776-0.002172z" fill="#FFFFFF" p-id="1590"></path><path d="M699.341816 1004.067154H390.958358c-10.111966 0-16.852552-6.740586-16.852553-16.852552v-97.73959c0-85.944106-33.702932-166.831143-94.36821-227.496421-26.962346-28.648035-50.555484-58.98176-67.405864-94.36821-3.371379-8.426276 0-18.53607 8.426276-21.907449 8.426276-3.371379 18.53607 0 21.907449 8.426276 15.166863 32.017242 35.388622 60.665278 60.665278 85.944106 67.405864 67.405864 104.480176 156.719178 104.480176 251.08956v80.887038h274.680526v-107.849383c0-10.111966 6.740586-16.852552 16.852552-16.852553h107.849383c35.388622 0 65.722347-28.648035 65.722347-65.722346v-146.609385c0-10.111966 6.740586-16.852552 16.852552-16.852552h85.944106l-128.073314-190.424282c-1.68569-3.371379-3.371379-6.740586-3.371379-10.111966 0-87.627624-35.388622-168.516833-97.73959-229.182111-64.036657-60.665278-146.609384-90.999003-234.237007-85.944106-72.462933 3.371379-143.238005 33.702932-197.164869 84.258417-6.740586 6.740586-16.852552 6.740586-23.593139 0s-6.740586-16.852552 0-23.593139c60.665278-55.610381 136.497418-89.313313 217.386628-94.36821 96.0539-5.054897 188.738592 28.648035 259.515836 94.36821 69.091554 65.722347 107.849383 153.349971 109.535073 247.718181l143.238005 212.329558c3.371379 5.054897 3.371379 11.795483 1.685689 16.852553-3.371379 5.054897-8.426276 8.426276-15.166862 8.426276h-99.425279v129.756832c0 53.924691-43.814898 99.425279-99.425279 99.425279h-90.999003v107.849383c-1.683517 10.118483-10.109794 18.542586-18.53607 18.542586z" fill="#193651" p-id="1591"></path><path d="M65.722347 323.261408h576.32557v65.722347H65.722347z" fill="#FFFFFF" p-id="1592"></path><path d="M640.362228 405.834135H65.722347c-10.111966 0-16.852552-6.740586-16.852552-16.852553v-65.722347c0-10.111966 6.740586-16.852552 16.852552-16.852552h576.32557c10.111966 0 16.852552 6.740586 16.852553 16.852552v65.722347c-1.687862 10.111966-8.428448 16.852552-18.538242 16.852553zM82.572727 372.131202h542.622638V340.11396H82.572727v32.017242z" fill="#193651" p-id="1593"></path><path d="M119.647038 265.967509h57.296071v181.998006H119.647038z" fill="#FFFFFF" p-id="1594"></path><path d="M176.943109 463.130205H119.647038c-10.111966 0-16.852552-6.740586-16.852552-16.852552v-180.312316c0-10.111966 6.740586-16.852552 16.852552-16.852552h57.296071c10.111966 0 16.852552 6.740586 16.852552 16.852552v181.998006c-0.002172 8.426276-6.742759 15.166863-16.852552 15.166862z m-40.445691-33.702932h23.593139v-148.295074H136.497418v148.295074z" fill="#193651" p-id="1595"></path><path d="M176.943109 225.521818h57.296071V486.721172H176.943109z" fill="#FFFFFF" p-id="1596"></path><path d="M234.237008 503.573724H176.943109c-10.111966 0-16.852552-6.740586-16.852552-16.852552V225.521818c0-10.111966 6.740586-16.852552 16.852552-16.852552h57.296071c10.111966 0 16.852552 6.740586 16.852552 16.852552V486.721172c-0.002172 10.111966-6.742759 16.852552-16.854724 16.852552z m-40.443519-33.702932h23.593139V242.37437H193.793489v227.496422z" fill="#193651" p-id="1597"></path><path d="M528.961166 264.837923h57.296071v181.998006h-57.296071z" fill="#FFFFFF" p-id="1598"></path><path d="M586.437536 463.130205h-57.29607c-10.111966 0-16.852552-6.740586-16.852553-16.852552v-180.312316c0-10.111966 6.740586-16.852552 16.852553-16.852552h57.29607c10.111966 0 16.852552 6.740586 16.852553 16.852552v181.998006c-0.002172 8.426276-6.742759 15.166863-16.852553 15.166862z m-40.445691-33.702932h23.593139v-148.295074h-23.593139v148.295074z" fill="#193651" p-id="1599"></path><path d="M472.323296 226.077922h57.296071v261.199353h-57.296071z" fill="#FFFFFF" p-id="1600"></path><path d="M529.141466 503.573724h-57.296071c-5.054897 0-8.426276-1.68569-11.795483-5.054897-3.371379-3.371379-5.054897-6.740586-5.054897-11.795483V225.521818c0-10.111966 6.740586-16.852552 16.852552-16.852552h57.296071c10.111966 0 16.852552 6.740586 16.852552 16.852552V486.721172c-0.004345 10.111966-8.428448 16.852552-16.854724 16.852552z m-42.129209-33.702932h23.593139V242.37437h-23.593139v227.496422zM456.678532 791.737595h33.702932v30.333725H456.678532zM539.251259 791.737595h33.702932v30.333725h-33.702932zM621.826158 791.737595h33.702932v30.333725h-33.702932z" fill="#193651" p-id="1601"></path></svg>